<?xml version="1.0" standalone="no"?>
<!DOCTYPE svg PUBLIC "-//W3C//DTD SVG 20010904//EN"
 "http://www.w3.org/TR/2001/REC-SVG-20010904/DTD/svg10.dtd">
<svg version="1.0" xmlns="http://www.w3.org/2000/svg"
 width="600.000000pt" height="600.000000pt" viewBox="0 0 600.000000 600.000000"
 preserveAspectRatio="xMidYMid meet">

<g transform="translate(0.000000,600.000000) scale(0.100000,-0.100000)"
fill="#000000" stroke="none">
<path d="M4110 3689 c-47 -4 -132 -7 -190 -8 -154 -1 -450 -29 -565 -52 -199
-41 -914 -63 -1230 -38 -226 18 -420 21 -545 10 -292 -26 -502 -58 -560 -85
-67 -31 -175 -106 -183 -129 -9 -24 -24 -202 -34 -389 l-5 -117 31 -19 c35
-21 78 -100 105 -192 9 -30 35 -93 59 -140 50 -101 65 -110 212 -135 55 -9
111 -19 123 -21 14 -3 21 -1 18 5 -3 5 -25 12 -49 16 -23 4 -58 11 -77 16 -19
5 -61 14 -93 20 -38 7 -60 17 -65 27 -3 10 -20 40 -38 68 -18 28 -49 99 -69
159 -42 126 -78 193 -111 206 -22 8 -24 15 -24 68 0 33 4 93 10 133 5 40 12
116 14 169 6 113 15 142 53 165 15 9 47 29 70 45 53 35 124 56 233 68 435 49
477 52 630 46 85 -4 193 -11 240 -17 108 -15 735 -15 975 0 110 6 246 22 350
40 218 39 439 54 800 56 341 1 360 -2 685 -114 255 -89 244 -84 270 -120 45
-64 89 -228 92 -342 1 -89 -13 -137 -60 -203 -38 -53 -55 -93 -106 -247 -18
-53 -44 -114 -58 -136 -26 -39 -27 -39 -100 -43 -158 -9 -1041 -1 -1180 10
-148 12 -250 32 -276 53 -8 7 -31 37 -52 68 -37 55 -57 89 -135 230 -23 41
-58 103 -78 137 -20 34 -37 65 -37 68 0 4 -20 35 -44 69 -63 89 -105 105 -192
76 -30 -9 -64 -26 -76 -36 -12 -11 -54 -89 -95 -174 -140 -293 -246 -497 -264
-508 -15 -10 -75 -24 -239 -56 -49 -9 77 2 150 14 124 20 133 26 187 132 54
107 65 131 168 368 42 96 84 183 93 193 21 24 66 42 119 49 80 11 133 -45 241
-252 101 -195 213 -380 243 -402 41 -31 90 -38 324 -48 305 -13 1185 -16 1212
-4 32 14 81 81 97 133 31 99 95 250 119 282 14 19 37 60 52 91 27 57 27 58 16
160 -21 191 -73 330 -139 375 -19 12 -92 40 -162 63 -71 22 -150 49 -175 60
-25 11 -108 33 -183 50 -148 34 -324 44 -502 29z"/>
<path d="M3935 3580 c-44 -5 -156 -14 -250 -19 -172 -11 -292 -33 -364 -69
-56 -27 -90 -105 -90 -207 -1 -78 23 -211 53 -297 89 -261 157 -387 230 -425
39 -21 287 -36 621 -37 373 -1 642 18 720 53 39 17 40 20 58 98 53 241 61 562
17 721 -13 49 -50 72 -180 115 -179 60 -240 69 -500 72 -129 2 -271 0 -315 -5z
m-115 -40 c0 -5 -5 -10 -11 -10 -5 0 -7 5 -4 10 3 6 8 10 11 10 2 0 4 -4 4
-10z m299 -8 c55 -21 72 -45 49 -68 -33 -34 -228 -12 -228 25 0 5 9 20 21 35
17 22 28 26 67 25 26 0 67 -8 91 -17z m257 -6 c29 -22 7 -49 -49 -60 -37 -7
-51 -6 -71 8 -27 17 -35 51 -13 59 27 11 114 6 133 -7z m-729 -42 c-3 -3 -12
-4 -19 -1 -8 3 -5 6 6 6 11 1 17 -2 13 -5z m-207 -43 c0 -6 -4 -13 -10 -16 -5
-3 -10 1 -10 9 0 9 5 16 10 16 6 0 10 -4 10 -9z m840 -6 c17 -9 30 -18 30 -21
0 -4 -59 23 -69 32 -10 9 13 3 39 -11z m-510 -11 c0 -4 -16 -31 -36 -61 -19
-29 -33 -57 -29 -62 3 -6 -1 -13 -9 -18 -15 -9 -111 -182 -104 -188 2 -3 15
14 28 38 35 64 117 181 145 207 32 30 33 9 1 -33 -39 -53 -40 -64 -2 -25 36
37 66 58 85 58 20 0 11 -15 -45 -75 -30 -33 -85 -97 -120 -142 l-65 -83 42
-62 c24 -35 58 -82 76 -104 21 -26 31 -48 27 -58 -7 -18 -20 -21 -29 -6 -3 6
-17 7 -30 4 -18 -4 -31 1 -51 23 l-26 28 6 -35 c5 -23 4 -30 -2 -20 -5 8 -12
31 -16 50 -4 19 -17 48 -30 64 l-24 29 -31 -54 c-40 -70 -77 -116 -87 -106 -4
4 0 24 10 45 l18 37 -21 -19 c-25 -23 -41 -14 -19 11 21 24 78 139 78 157 0 7
-30 64 -66 126 -51 86 -65 117 -61 138 3 15 -1 38 -8 52 -14 25 -20 70 -10 70
4 0 20 -7 37 -16 24 -12 32 -13 38 -4 13 22 26 3 45 -67 10 -37 34 -99 53
-137 l34 -68 70 133 c39 74 80 144 91 157 20 21 37 29 37 16z m786 -21 c-10
-10 -19 5 -10 18 6 11 8 11 12 0 2 -7 1 -15 -2 -18z m354 -4 c0 -5 -7 -6 -15
-3 -8 4 -15 13 -15 21 0 13 3 13 15 3 8 -7 15 -16 15 -21z m-1000 -4 c0 -14
-32 -66 -37 -61 -8 7 17 66 28 66 5 0 9 -2 9 -5z m900 -3 c0 -5 -9 -17 -20
-27 -11 -10 -20 -13 -20 -7 0 6 -3 17 -6 26 -5 12 0 16 20 16 14 0 26 -4 26
-8z m-755 -42 c29 -46 39 -52 25 -15 -7 19 -6 25 5 25 7 0 16 -10 20 -22 11
-42 38 -98 46 -98 4 0 21 19 38 43 16 24 36 49 45 56 13 11 14 16 4 29 -11 13
-9 14 17 8 17 -4 34 -11 39 -16 8 -8 -60 -136 -92 -173 -8 -9 -12 -20 -9 -24
9 -8 6 -11 57 69 23 38 54 77 68 89 l27 21 3 -27 c2 -18 -14 -55 -52 -118 -31
-51 -56 -98 -56 -105 0 -8 26 -49 57 -93 32 -43 58 -86 58 -94 0 -24 78 -123
92 -118 7 3 13 2 13 -2 0 -11 -34 -65 -40 -65 -4 0 -21 20 -40 45 -18 25 -36
43 -38 40 -3 -3 4 -15 16 -28 28 -29 29 -54 2 -52 -21 1 -41 15 -22 15 6 0
-18 37 -55 83 -36 45 -75 97 -87 114 -12 18 -23 33 -26 33 -3 0 -32 -49 -65
-108 -33 -59 -67 -107 -75 -108 -8 0 -28 -6 -43 -12 -38 -16 -39 -15 -31 11 4
12 7 30 6 40 -1 24 46 128 97 211 42 70 48 86 32 86 -9 0 -147 -222 -186 -299
-11 -21 -20 -30 -26 -24 -10 10 18 63 141 266 l53 88 -52 98 c-28 54 -51 106
-51 115 0 25 17 19 24 -10 9 -33 88 -174 98 -174 11 0 13 -3 -37 98 -43 88
-56 142 -35 142 5 0 21 -18 35 -40z m693 -35 c29 -33 60 -81 70 -107 9 -27 19
-48 23 -48 9 0 -9 -110 -27 -158 -18 -49 -127 -166 -169 -182 -24 -9 -34 -7
-64 13 -20 13 -53 35 -74 48 -111 71 -119 297 -16 423 49 59 85 76 149 74 54
-2 56 -3 108 -63z m-1441 23 c-3 -7 -5 -2 -5 12 0 14 2 19 5 13 2 -7 2 -19 0
-25z m1573 -12 c0 -8 -4 -18 -10 -21 -5 -3 -10 3 -10 14 0 12 5 21 10 21 6 0
10 -6 10 -14z m-1349 -37 c-9 -22 -10 -22 -10 -3 -1 11 2 24 6 27 12 12 14 0
4 -24z m1359 -111 c0 -108 -18 -111 -20 -3 -2 92 -2 95 10 95 6 0 10 -37 10
-92z m-1611 -12 c1 -39 -17 -21 -19 19 -1 17 -1 35 0 40 3 18 19 -29 19 -59z
m441 -95 c0 -6 -4 -13 -10 -16 -5 -3 -10 1 -10 9 0 9 5 16 10 16 6 0 10 -4 10
-9z m160 5 c0 -3 -4 -8 -10 -11 -5 -3 -10 -1 -10 4 0 6 5 11 10 11 6 0 10 -2
10 -4z m1060 -6 c0 -5 -4 -10 -10 -10 -5 0 -10 5 -10 10 0 6 5 10 10 10 6 0
10 -4 10 -10z m-1175 -180 c3 -5 1 -10 -4 -10 -6 0 -11 5 -11 10 0 6 2 10 4
10 3 0 8 -4 11 -10z m-75 -150 c0 -20 -2 -22 -10 -10 -5 8 -10 26 -10 40 0 20
2 22 10 10 5 -8 10 -26 10 -40z m-178 -23 c20 -5 27 -3 31 10 3 14 6 11 11 -9
5 -15 17 -30 27 -33 30 -10 36 -53 11 -78 l-21 -21 -36 40 c-20 21 -45 57 -56
78 -22 45 -24 58 -6 35 7 -9 24 -19 39 -22z m95 11 c-3 -8 -6 -5 -6 6 -1 11 2
17 5 13 3 -3 4 -12 1 -19z m1151 -14 c42 -17 51 -29 45 -55 -6 -22 -19 -25
-25 -7 -4 10 -25 9 -95 -5 -127 -24 -151 -23 -165 9 -11 24 -10 29 11 43 64
43 149 49 229 15z m-728 -35 c0 -6 -4 -7 -10 -4 -5 3 -10 11 -10 16 0 6 5 7
10 4 6 -3 10 -11 10 -16z m-333 -21 c-3 -8 -6 -5 -6 6 -1 11 2 17 5 13 3 -3 4
-12 1 -19z m43 1 c0 -5 -4 -9 -10 -9 -5 0 -10 7 -10 16 0 8 5 12 10 9 6 -3 10
-10 10 -16z m145 -9 c3 -5 1 -10 -4 -10 -6 0 -11 5 -11 10 0 6 2 10 4 10 3 0
8 -4 11 -10z m-55 -20 c0 -5 -4 -10 -10 -10 -5 0 -10 5 -10 10 0 6 5 10 10 10
6 0 10 -4 10 -10z m680 -10 c0 -5 -4 -10 -10 -10 -5 0 -10 5 -10 10 0 6 5 10
10 10 6 0 10 -4 10 -10z m-393 -56 c-3 -3 -12 -4 -19 -1 -8 3 -5 6 6 6 11 1
17 -2 13 -5z"/>
<path d="M4005 3510 c-3 -5 -1 -10 4 -10 6 0 11 5 11 10 0 6 -2 10 -4 10 -3 0
-8 -4 -11 -10z"/>
<path d="M3435 3323 c8 -18 18 -33 20 -33 10 0 4 16 -16 40 l-20 25 16 -32z"/>
<path d="M3400 3274 c0 -8 104 -183 124 -209 28 -36 17 -4 -21 59 -78 131
-103 167 -103 150z"/>
<path d="M3580 2979 c0 -12 85 -125 102 -135 19 -12 1 24 -45 87 -41 56 -57
70 -57 48z"/>
<path d="M4201 3265 c-18 -25 -31 -52 -29 -60 2 -8 18 12 36 45 18 33 31 60
29 60 -2 0 -18 -20 -36 -45z"/>
<path d="M4140 3165 c0 -8 4 -15 10 -15 5 0 7 7 4 15 -4 8 -8 15 -10 15 -2 0
-4 -7 -4 -15z"/>
<path d="M4102 3119 c2 -7 10 -15 17 -17 8 -3 12 1 9 9 -2 7 -10 15 -17 17 -8
3 -12 -1 -9 -9z"/>
<path d="M4091 2910 c-29 -56 -51 -103 -49 -106 7 -6 110 185 106 197 -2 6
-28 -35 -57 -91z"/>
<path d="M4180 3003 c0 -5 7 -17 15 -27 15 -20 20 -10 9 18 -6 16 -24 22 -24
9z"/>
<path d="M4045 2939 c-9 -17 -15 -33 -13 -35 3 -2 12 12 21 31 21 43 13 47 -8
4z"/>
<path d="M4230 2935 c0 -5 5 -17 10 -25 5 -8 10 -10 10 -5 0 6 -5 17 -10 25
-5 8 -10 11 -10 5z"/>
<path d="M4578 3353 c-10 -2 -18 -11 -18 -19 0 -12 6 -13 23 -7 12 4 44 8 71
7 45 -1 47 0 25 12 -24 13 -67 16 -101 7z"/>
<path d="M4501 3284 c-34 -44 -61 -130 -61 -198 0 -63 14 -122 33 -141 7 -7 7
-3 2 10 -4 11 -12 47 -18 81 -13 74 6 168 48 233 29 46 27 54 -4 15z"/>
<path d="M4582 3283 c-34 -16 -70 -59 -59 -69 3 -3 11 4 17 16 6 12 35 32 63
46 29 13 43 24 32 24 -11 0 -35 -8 -53 -17z"/>
<path d="M4619 3260 c-111 -59 -142 -212 -61 -302 43 -47 77 -50 116 -9 34 35
61 118 45 137 -8 10 -8 27 2 63 18 71 0 131 -39 131 -15 -1 -43 -10 -63 -20z"/>
<path d="M4732 3130 c0 -19 2 -27 5 -17 2 9 2 25 0 35 -3 9 -5 1 -5 -18z"/>
<path d="M4761 3124 c0 -11 3 -14 6 -6 3 7 2 16 -1 19 -3 4 -6 -2 -5 -13z"/>
<path d="M4746 3058 c-4 -24 -17 -62 -31 -85 -13 -24 -20 -43 -16 -43 15 0 51
79 57 124 4 25 4 46 1 46 -2 0 -8 -19 -11 -42z"/>
<path d="M4783 3045 c-5 -24 -6 -42 -2 -39 9 5 24 73 17 79 -3 3 -9 -15 -15
-40z"/>
<path d="M4480 3013 c0 -17 29 -81 39 -88 6 -3 1 16 -11 42 -23 53 -28 61 -28
46z"/>
<path d="M4610 2841 c0 -5 9 -7 20 -4 11 3 20 7 20 9 0 2 -9 4 -20 4 -11 0
-20 -4 -20 -9z"/>
<path d="M1410 3500 c-146 -11 -227 -27 -266 -51 -65 -40 -86 -164 -67 -404
14 -184 33 -289 71 -395 36 -101 49 -116 97 -122 22 -3 103 -15 180 -27 77
-12 205 -25 285 -29 177 -9 501 1 590 18 36 6 74 12 85 11 25 0 69 42 95 92
22 41 110 239 153 342 43 105 65 264 46 342 -6 26 -16 52 -20 57 -5 6 -9 17
-9 26 0 31 -45 60 -125 80 -43 11 -93 20 -111 20 -18 0 -84 6 -146 14 -200 26
-674 40 -858 26z m190 -40 c0 -5 -4 -10 -10 -10 -5 0 -10 5 -10 10 0 6 5 10
10 10 6 0 10 -4 10 -10z m450 -14 c0 -2 -9 -6 -20 -9 -11 -3 -18 -1 -14 4 5 9
34 13 34 5z m-500 -27 c0 -14 -46 -11 -58 4 -9 10 -4 12 23 9 19 -2 35 -8 35
-13z m300 1 c0 -5 -7 -10 -15 -10 -8 0 -15 5 -15 10 0 6 7 10 15 10 8 0 15 -4
15 -10z m-229 -35 c0 -5 -12 -11 -27 -13 -24 -3 -25 -5 -9 -22 22 -25 11 -30
-89 -40 -111 -11 -126 -20 -126 -71 l0 -40 111 3 c98 3 112 1 124 -15 30 -41
3 -54 -133 -67 -46 -4 -88 -12 -93 -17 -7 -7 -6 -46 2 -117 9 -85 9 -118 -1
-167 -12 -55 -15 -60 -27 -43 -7 10 -14 34 -14 53 -1 35 -2 35 -8 7 -7 -32
-19 -40 -40 -27 -21 13 -40 144 -47 328 -6 146 -9 162 -26 166 -24 7 -23 24 2
32 11 3 20 10 20 15 0 11 118 30 240 40 115 9 141 8 141 -5z m955 -16 c48 -38
55 -50 56 -98 0 -46 -9 -80 -29 -103 -14 -16 -17 -16 -39 0 -18 13 -23 27 -24
62 -1 88 -10 118 -39 125 -61 15 -63 45 -2 45 28 0 49 -9 77 -31z m-215 -2
c18 -12 51 -48 72 -79 37 -54 38 -59 27 -92 -6 -20 -32 -56 -56 -82 l-45 -46
41 -65 c77 -121 113 -253 67 -245 -10 2 -25 -2 -33 -9 -17 -14 -15 -17 -43 51
-59 141 -134 237 -179 228 -15 -3 -18 -22 -25 -147 -4 -80 -10 -147 -13 -150
-3 -3 -9 1 -15 9 -7 12 -10 11 -15 -7 -7 -25 -23 -31 -25 -10 0 6 -1 155 -2
329 l-2 318 40 5 c142 18 169 17 206 -8z m-315 -11 c20 -21 17 -27 -10 -20
-19 4 -25 1 -30 -19 -5 -22 -13 -25 -103 -36 -53 -6 -98 -13 -100 -15 -1 -1 0
-45 4 -98 l6 -96 41 6 c45 5 56 15 56 49 0 12 4 24 9 28 6 3 8 -8 4 -28 -5
-31 -3 -33 24 -32 21 0 28 -5 28 -20 0 -11 5 -20 12 -20 23 0 27 -16 5 -22
-13 -3 -22 -14 -23 -27 -1 -17 -2 -17 -6 -3 -6 21 -4 21 -83 -1 l-65 -19 4
-69 c1 -38 5 -72 6 -75 2 -3 31 -1 64 5 59 9 61 11 62 40 2 31 2 31 6 4 4 -24
9 -28 39 -28 19 0 34 -4 34 -9 0 -5 3 -23 6 -40 4 -20 3 -31 -5 -31 -6 0 -11
9 -11 21 0 16 -4 19 -17 14 -67 -29 -108 -38 -178 -43 -44 -2 -85 -8 -91 -13
-12 -9 -54 -1 -54 12 0 4 4 10 9 13 13 9 14 223 1 231 -8 5 -8 11 1 21 17 21
4 225 -16 240 -27 20 -16 32 35 39 28 4 57 13 64 21 9 8 16 10 18 4 4 -12 170
4 210 19 12 6 24 10 26 10 2 1 10 -5 18 -13z m-871 -28 c-10 -31 -25 -47 -25
-26 0 24 11 48 22 48 5 0 6 -10 3 -22z m-78 -195 c-3 -10 -5 -4 -5 12 0 17 2
24 5 18 2 -7 2 -21 0 -30z m760 -25 c-3 -8 -6 -5 -6 6 -1 11 2 17 5 13 3 -3 4
-12 1 -19z m199 -106 c-11 -10 -14 3 -8 33 l7 30 3 -28 c2 -16 1 -31 -2 -35z
m447 -137 c-7 -21 -13 -19 -13 6 0 11 4 18 10 14 5 -3 7 -12 3 -20z m-1269 -1
c3 -8 2 -12 -4 -9 -6 3 -10 10 -10 16 0 14 7 11 14 -7z m-37 -66 c-3 -7 -5 -2
-5 12 0 14 2 19 5 13 2 -7 2 -19 0 -25z m363 10 c0 -6 -6 -5 -15 2 -8 7 -15
14 -15 16 0 2 7 1 15 -2 8 -4 15 -11 15 -16z m-110 -23 c20 -24 6 -28 -15 -5
-10 11 -13 20 -8 20 6 0 16 -7 23 -15z m547 -47 c-2 -13 -4 -5 -4 17 -1 22 1
32 4 23 2 -10 2 -28 0 -40z m-837 1 c0 -6 -4 -7 -10 -4 -5 3 -10 11 -10 16 0
6 5 7 10 4 6 -3 10 -11 10 -16z m270 -21 c19 -27 20 -30 4 -18 -22 17 -34 32
-34 43 0 13 6 8 30 -25z m-84 -29 c27 -26 40 -30 112 -36 59 -4 88 -11 104
-24 11 -11 26 -19 32 -19 6 0 6 -3 1 -9 -22 -21 -142 -20 -129 0 3 5 -6 9 -20
9 -14 0 -26 -4 -26 -10 0 -17 -76 -11 -101 8 -13 9 -40 25 -61 36 -42 21 -55
53 -30 72 25 20 82 6 118 -27z m19 31 c3 -5 1 -10 -4 -10 -6 0 -11 5 -11 10 0
6 2 10 4 10 3 0 8 -4 11 -10z m215 0 c0 -5 -2 -10 -4 -10 -3 0 -8 5 -11 10 -3
6 -1 10 4 10 6 0 11 -4 11 -10z m-95 -10 c3 -5 2 -10 -4 -10 -5 0 -13 5 -16
10 -3 6 -2 10 4 10 5 0 13 -4 16 -10z m199 -87 c4 -4 13 -8 19 -9 7 0 20 -2
30 -2 23 -3 22 -32 -2 -32 -10 0 -24 7 -31 15 -7 8 -19 15 -26 15 -8 0 -14 5
-14 10 0 12 13 13 24 3z m240 -38 c3 -9 0 -15 -9 -15 -8 0 -15 7 -15 15 0 8 4
15 9 15 5 0 11 -7 15 -15z m-664 -19 c0 -11 -19 -15 -25 -6 -3 5 1 10 9 10 9
0 16 -2 16 -4z"/>
<path d="M1418 3353 c-32 -2 -58 -8 -58 -12 0 -9 55 -5 145 9 46 7 47 8 10 7
-22 0 -66 -2 -97 -4z"/>
<path d="M1308 3333 c7 -3 16 -2 19 1 4 3 -2 6 -13 5 -11 0 -14 -3 -6 -6z"/>
<path d="M1291 3258 c1 -7 5 -24 9 -38 7 -22 8 -21 9 13 1 20 -3 37 -9 37 -5
0 -10 -6 -9 -12z"/>
<path d="M1271 3034 c1 -32 5 -72 9 -89 5 -18 6 4 3 55 -6 99 -14 120 -12 34z"/>
<path d="M2185 3330 c-3 -5 1 -10 11 -10 15 0 16 -10 11 -100 l-5 -100 28 0
c58 0 151 60 165 107 7 27 -25 61 -81 88 -34 16 -37 16 -55 -1 -16 -14 -19
-15 -14 -2 4 10 -1 17 -17 22 -31 8 -36 8 -43 -4z"/>
<path d="M2144 3185 c0 -49 1 -71 3 -48 2 23 2 64 0 90 -2 26 -3 8 -3 -42z"/>
<path d="M2389 3174 c-13 -14 -40 -34 -59 -45 -26 -13 -30 -18 -15 -19 27 0
81 34 95 60 17 32 7 34 -21 4z"/>
<path d="M1710 3238 c0 -19 2 -20 10 -8 13 19 13 30 0 30 -5 0 -10 -10 -10
-22z"/>
<path d="M1762 3220 c0 -14 2 -19 5 -12 2 6 2 18 0 25 -3 6 -5 1 -5 -13z"/>
<path d="M1260 2690 c0 -12 28 -25 36 -17 3 3 -4 10 -15 17 -15 7 -21 7 -21 0z"/>
<path d="M926 3378 c-8 -27 -26 -296 -25 -363 1 -63 2 -66 9 -30 24 117 45
405 30 405 -6 0 -12 -6 -14 -12z"/>
<path d="M5085 3353 c14 -57 54 -291 57 -333 4 -59 23 -50 22 10 -3 88 -60
350 -76 350 -6 0 -7 -11 -3 -27z"/>
<path d="M2118 2383 c6 -2 18 -2 25 0 6 3 1 5 -13 5 -14 0 -19 -2 -12 -5z"/>
<path d="M1398 2373 c12 -2 30 -2 40 0 9 3 -1 5 -23 4 -22 0 -30 -2 -17 -4z"/>
<path d="M2013 2373 c9 -2 25 -2 35 0 9 3 1 5 -18 5 -19 0 -27 -2 -17 -5z"/>
<path d="M1593 2363 c26 -2 68 -2 95 0 26 2 4 3 -48 3 -52 0 -74 -1 -47 -3z"/>
</g>
</svg>
