<?xml version="1.0" standalone="no"?>
<!DOCTYPE svg PUBLIC "-//W3C//DTD SVG 20010904//EN"
 "http://www.w3.org/TR/2001/REC-SVG-20010904/DTD/svg10.dtd">
<svg version="1.0" xmlns="http://www.w3.org/2000/svg"
 width="415.000000pt" height="160.000000pt" viewBox="0 0 415.000000 160.000000"
 preserveAspectRatio="xMidYMid meet">

<g transform="translate(0.000000,160.000000) scale(0.100000,-0.100000)"
fill="#000000" stroke="none">
<path d="M1405 1157 c-3 -6 -4 -181 -3 -387 l3 -375 24 -3 c13 -2 28 2 32 10
5 7 9 156 9 331 l0 317 93 -104 c50 -58 100 -107 110 -111 18 -7 47 10 47 26
0 9 -118 147 -216 252 -52 55 -89 72 -99 44z"/>
<path d="M2072 1157 c-8 -9 -13 -109 -14 -327 l-3 -313 -95 107 c-69 79 -100
106 -115 104 -12 -2 -21 -12 -23 -25 -5 -33 251 -315 282 -311 l21 3 0 385 c0
383 0 385 -21 388 -11 2 -26 -3 -32 -11z"/>
<path d="M2299 1147 c-68 -45 -70 -58 -67 -377 3 -316 4 -319 71 -360 30 -18
52 -20 295 -20 291 0 306 3 342 63 19 30 20 52 20 327 0 414 23 390 -361 390
-260 0 -267 -1 -300 -23z m576 -68 c19 -19 20 -33 20 -299 0 -277 0 -280 -23
-302 -22 -22 -29 -23 -247 -26 -248 -3 -295 3 -313 43 -8 18 -12 110 -12 289
0 249 1 265 20 289 26 33 38 34 310 29 207 -3 227 -5 245 -23z"/>
<path d="M2571 821 c-24 -45 -3 -107 35 -99 16 3 19 12 19 58 0 49 -2 55 -22
58 -14 2 -26 -4 -32 -17z"/>
<path d="M3070 1155 c-10 -12 -11 -40 -7 -114 7 -116 29 -172 88 -226 l39 -35
-39 -35 c-58 -53 -82 -112 -88 -220 -6 -103 4 -138 40 -133 21 3 22 10 27 108
6 124 25 169 88 214 39 28 48 29 169 34 271 10 332 -34 342 -243 5 -95 8 -110
24 -113 10 -2 25 2 34 10 13 11 15 29 10 115 -7 122 -26 172 -85 226 l-42 37
42 38 c57 52 79 105 85 216 6 104 -4 139 -40 134 -21 -3 -22 -9 -27 -113 -6
-127 -24 -167 -93 -213 -40 -26 -44 -27 -201 -27 -187 0 -220 10 -270 83 -28
39 -31 51 -36 155 -5 104 -7 112 -26 115 -11 2 -27 -4 -34 -13z"/>
</g>
</svg>
